<svg version="1.1" id="Layer_1" xmlns="http://www.w3.org/2000/svg" xmlns:xlink="http://www.w3.org/1999/xlink" x="0px" y="0px"
	 width="15px" viewBox="0 0 410 410" enable-background="new 0 0 410 410" xml:space="preserve">
<path fill="#00000000" opacity="1.000000" stroke="none" 
	d="
M192.000000,411.000000 
	C128.019363,411.000000 64.538712,411.000000 1.029034,411.000000 
	C1.029034,274.394348 1.029034,137.788696 1.029034,1.091522 
	C137.563934,1.091522 274.127960,1.091522 410.846008,1.091522 
	C410.846008,137.666534 410.846008,274.333252 410.846008,411.000000 
	C338.122101,411.000000 265.311035,411.000000 192.000000,411.000000 
M304.294800,161.036072 
	C315.547821,166.028625 326.831665,170.953369 338.036743,176.051270 
	C341.849640,177.786011 346.063965,177.655670 347.667908,174.293549 
	C349.007172,171.486282 348.905029,166.117889 347.039154,164.013596 
	C341.870667,158.184616 336.079529,152.352493 329.381165,148.557175 
	C317.459045,141.802094 304.817139,136.250626 292.239136,130.736618 
	C276.129944,123.674591 259.160797,119.731194 241.793243,116.776512 
	C224.508942,113.835991 207.500397,115.206230 190.442566,117.254417 
	C172.756805,119.378014 155.497894,123.684853 138.759506,129.768829 
	C115.699409,138.150574 95.362297,151.325134 76.184486,166.390106 
	C72.863266,168.999069 71.934990,174.828842 74.185577,178.115494 
	C76.687843,181.769730 80.170326,181.531754 83.811226,179.988144 
	C84.703598,179.609818 85.689255,179.422562 86.534554,178.966721 
	C93.920830,174.983429 101.118599,170.607529 108.691956,167.023605 
	C122.401161,160.536026 136.184998,154.156067 150.227020,148.442276 
	C157.654968,145.419785 165.692062,143.894302 173.473892,141.687378 
	C174.057968,149.093582 174.436371,155.854828 175.152283,162.580170 
	C176.896591,178.966446 181.984192,193.921280 191.764160,207.603104 
	C202.112274,222.079758 224.574738,226.328217 240.153748,223.223953 
	C246.685028,221.922516 252.155304,218.254379 257.741608,214.358414 
	C268.383789,206.936432 274.214661,196.885574 276.795197,184.819733 
	C279.126282,173.920029 280.380035,162.789917 282.149902,151.499573 
	C288.789795,154.421295 296.159424,157.664108 304.294800,161.036072 
M63.177467,241.835892 
	C69.419960,235.900360 75.910912,230.199875 81.822342,223.951141 
	C86.154739,219.371536 85.973938,213.738297 82.326080,209.887848 
	C78.713860,206.075012 73.146118,205.903458 68.175774,210.052551 
	C62.490677,214.798279 56.612598,219.508759 51.880722,225.128983 
	C48.909718,228.657761 47.343597,233.692307 46.171360,238.311218 
	C45.219612,242.061340 48.331738,245.235794 52.163227,244.814484 
	C55.650204,244.431061 59.021389,242.994537 63.177467,241.835892 
M353.002167,209.481308 
	C352.036469,208.857178 351.106628,208.167023 350.099274,207.619568 
	C343.244781,203.894501 340.872375,203.909714 336.720337,208.969162 
	C333.247192,213.201401 335.053070,217.483124 337.918823,221.424515 
	C344.214874,230.083862 351.991180,237.121506 361.935730,241.102402 
	C364.799438,242.248779 369.114014,241.737534 371.911865,240.313339 
	C373.485626,239.512253 373.488220,235.316727 373.850342,232.603912 
	C373.983826,231.603836 373.227600,230.411362 372.689819,229.406952 
	C368.221069,221.061447 361.380371,215.026840 353.002167,209.481308 
M132.525223,248.103363 
	C128.301285,245.436859 123.514748,246.395096 121.229782,249.674713 
	C114.148964,259.837860 107.174210,270.433502 108.310333,283.692688 
	C108.522926,286.173798 110.802917,289.895691 112.828568,290.439728 
	C115.284828,291.099426 119.211166,289.788147 121.231148,287.940735 
	C128.520645,281.273987 132.911407,272.572723 135.204803,263.099243 
	C136.359802,258.328308 138.309601,252.760971 132.525223,248.103363 
M294.945282,287.966919 
	C301.473083,291.297852 306.470428,287.219757 306.019501,280.370331 
	C305.170898,267.478821 299.366455,256.819550 290.906067,247.517059 
	C287.598633,243.880478 283.952393,244.513992 280.006866,247.499557 
	C275.775513,250.701370 276.366516,255.090515 277.516968,258.738831 
	C280.923706,269.542297 285.408234,279.922455 294.945282,287.966919 
M215.541595,299.935089 
	C215.660294,289.822266 216.029953,279.703247 215.781158,269.599457 
	C215.673096,265.210815 211.393951,261.517487 207.923798,261.609344 
	C202.026474,261.765442 198.490143,263.941895 198.231812,269.091156 
	C197.763977,278.416046 197.519226,287.845795 198.468094,297.099823 
	C198.824203,300.572876 202.568466,303.852966 205.210449,306.828125 
	C205.866714,307.567169 208.715515,307.371704 209.732178,306.565796 
	C211.801849,304.925201 213.309998,302.576263 215.541595,299.935089 
z"/>
<path fill="#FE0101" opacity="1.000000" stroke="none" 
	d="
M303.911926,160.971497 
	C296.159424,157.664108 288.789795,154.421295 282.149902,151.499573 
	C280.380035,162.789917 279.126282,173.920029 276.795197,184.819733 
	C274.214661,196.885574 268.383789,206.936432 257.741608,214.358414 
	C252.155304,218.254379 246.685028,221.922516 240.153748,223.223953 
	C224.574738,226.328217 202.112274,222.079758 191.764160,207.603104 
	C181.984192,193.921280 176.896591,178.966446 175.152283,162.580170 
	C174.436371,155.854828 174.057968,149.093582 173.473892,141.687378 
	C165.692062,143.894302 157.654968,145.419785 150.227020,148.442276 
	C136.184998,154.156067 122.401161,160.536026 108.691956,167.023605 
	C101.118599,170.607529 93.920830,174.983429 86.534554,178.966721 
	C85.689255,179.422562 84.703598,179.609818 83.811226,179.988144 
	C80.170326,181.531754 76.687843,181.769730 74.185577,178.115494 
	C71.934990,174.828842 72.863266,168.999069 76.184486,166.390106 
	C95.362297,151.325134 115.699409,138.150574 138.759506,129.768829 
	C155.497894,123.684853 172.756805,119.378014 190.442566,117.254417 
	C207.500397,115.206230 224.508942,113.835991 241.793243,116.776512 
	C259.160797,119.731194 276.129944,123.674591 292.239136,130.736618 
	C304.817139,136.250626 317.459045,141.802094 329.381165,148.557175 
	C336.079529,152.352493 341.870667,158.184616 347.039154,164.013596 
	C348.905029,166.117889 349.007172,171.486282 347.667908,174.293549 
	C346.063965,177.655670 341.849640,177.786011 338.036743,176.051270 
	C326.831665,170.953369 315.547821,166.028625 303.911926,160.971497 
z"/>
<path fill="#FB0303" opacity="1.000000" stroke="none" 
	d="
M62.810539,241.929062 
	C59.021389,242.994537 55.650204,244.431061 52.163227,244.814484 
	C48.331738,245.235794 45.219612,242.061340 46.171360,238.311218 
	C47.343597,233.692307 48.909718,228.657761 51.880722,225.128983 
	C56.612598,219.508759 62.490677,214.798279 68.175774,210.052551 
	C73.146118,205.903458 78.713860,206.075012 82.326080,209.887848 
	C85.973938,213.738297 86.154739,219.371536 81.822342,223.951141 
	C75.910912,230.199875 69.419960,235.900360 62.810539,241.929062 
z"/>
<path fill="#FD0101" opacity="1.000000" stroke="none" 
	d="
M353.293762,209.708527 
	C361.380371,215.026840 368.221069,221.061447 372.689819,229.406952 
	C373.227600,230.411362 373.983826,231.603836 373.850342,232.603912 
	C373.488220,235.316727 373.485626,239.512253 371.911865,240.313339 
	C369.114014,241.737534 364.799438,242.248779 361.935730,241.102402 
	C351.991180,237.121506 344.214874,230.083862 337.918823,221.424515 
	C335.053070,217.483124 333.247192,213.201401 336.720337,208.969162 
	C340.872375,203.909714 343.244781,203.894501 350.099274,207.619568 
	C351.106628,208.167023 352.036469,208.857178 353.293762,209.708527 
z"/>
<path fill="#FC0202" opacity="1.000000" stroke="none" 
	d="
M132.818359,248.355362 
	C138.309601,252.760971 136.359802,258.328308 135.204803,263.099243 
	C132.911407,272.572723 128.520645,281.273987 121.231148,287.940735 
	C119.211166,289.788147 115.284828,291.099426 112.828568,290.439728 
	C110.802917,289.895691 108.522926,286.173798 108.310333,283.692688 
	C107.174210,270.433502 114.148964,259.837860 121.229782,249.674713 
	C123.514748,246.395096 128.301285,245.436859 132.818359,248.355362 
z"/>
<path fill="#FB0303" opacity="1.000000" stroke="none" 
	d="
M294.583740,287.830872 
	C285.408234,279.922455 280.923706,269.542297 277.516968,258.738831 
	C276.366516,255.090515 275.775513,250.701370 280.006866,247.499557 
	C283.952393,244.513992 287.598633,243.880478 290.906067,247.517059 
	C299.366455,256.819550 305.170898,267.478821 306.019501,280.370331 
	C306.470428,287.219757 301.473083,291.297852 294.583740,287.830872 
z"/>
<path fill="#FD0101" opacity="1.000000" stroke="none" 
	d="
M215.295563,300.227112 
	C213.309998,302.576263 211.801849,304.925201 209.732178,306.565796 
	C208.715515,307.371704 205.866714,307.567169 205.210449,306.828125 
	C202.568466,303.852966 198.824203,300.572876 198.468094,297.099823 
	C197.519226,287.845795 197.763977,278.416046 198.231812,269.091156 
	C198.490143,263.941895 202.026474,261.765442 207.923798,261.609344 
	C211.393951,261.517487 215.673096,265.210815 215.781158,269.599457 
	C216.029953,279.703247 215.660294,289.822266 215.295563,300.227112 
z"/>
</svg>